max v2;#N vpatcher 393 48 1171 504;#P window setfont "Sans Serif" 9.;#P message 473 132 56 196617 set captur;#P newex -4 290 27 196617 t b i;#P newex 39 291 105 196617 r capture-samplength;#B color 6;#P message 40 332 14 196617 0;#P message -4 269 14 196617 1;#P newex 11 413 95 196617 prepend samplength;#P newex 13 374 41 196617 gate;#P newex -4 332 27 196617 i;#P window linecount 2;#P comment 55 368 52 196617 little logic for sync;#P window linecount 1;#P newex 522 74 66 196617 route captur;#P newex 153 347 63 196617 maximum 0.;#P button 153 306 15 0;#P newex 153 327 27 196617 f;#P newex 186 105 40 196617 t b b b;#P window linecount 2;#P message 610 267 84 196617 \; $1 totaltime \$1 \;;#P user hslider 508 385 18 128 128 1 0 6;#P window linecount 1;#P newex 427 365 42 196617 * 127.;#P newex 427 386 71 196617 prepend prgrs;#P newex 427 406 50 196617 s $1;#B color 6;#P newex 427 346 74 196617 snapshot~ 100;#P number 336 332 20 9 0 2 7 3 0 0 0 221 221 221 222 222 222 0 0 0;#P newex 296 351 50 196617 swap~;#P window linecount 2;#P newex 695 63 68 196617 route pan swap prgrs;#P user dial 374 328 40 40 128 1 0 0 135 270 1 1. 170 170 170 220 220 220 119 119 119 224 224 224 0 0 0 0 0 0;#P window linecount 1;#P newex 317 378 88 196617 panst~;#P flonum 313 163 28 9 0 0 0 3 0 0 0 221 221 221 222 222 222 0 0 0;#P newex 247 143 40 196617 t b b f;#P message 190 306 17 196617 0.;#P newex 216 367 27 196617 f;#P window linecount 2;#P message 208 391 95 196617 \; $1 startpos \$1 \;;#P flonum 233 348 52 9 0. 0 1 3 0 0 0 221 221 221 222 222 222 0 0 0;#P window linecount 1;#P message 247 112 22 196617 -1.;#P message 228 124 17 196617 1.;#P newex 226 85 53 196617 select 0 1;#P toggle 226 65 15 0;#P newex 293 181 30 196617 * 1.;#P message 593 279 14 196617 1;#P message 558 279 14 196617 0;#P window linecount 2;#P message 549 297 75 196617 \; $1 loop \$1 \;;#P message 621 354 92 196617 \; $1 loopend \$1 \;;#P message 520 354 100 196617 \; $1 loopstart \$1 \;;#P window linecount 1;#P newex 503 259 27 196617 t f f;#P message 503 316 29 196617 0.03;#P newex 503 297 44 196617 select 1;#P newex 503 278 40 196617 < 0.04;#P flonum 573 337 52 9 0. 0 1 3 0 0 0 221 221 221 222 222 222 0 0 0;#P flonum 520 337 52 9 0. 0 1 3 0 0 0 221 221 221 222 222 222 0 0 0;#P newex 558 259 45 196617 select 0.;#P newex 503 237 105 196617 info~ chiko;#P newex 578 111 28 196617 t b s;#P newex 652 210 70 196617 prepend $3 1;#P newex 628 231 70 196617 prepend $2 0;#P newex 628 168 49 196617 pack 0. 0;#P newex 628 147 38 196617 / 127.;#P outlet 628 309 15 0;#P newex 628 126 88 196617 fenv;#P newex 628 84 34 196617 t b l;#P button 159 168 15 0;#P toggle 494 168 15 0;#P message 494 189 41 196617 loop \$1;#P comment 324 244 27 196617 trsp;#P newex 293 222 35 196617 thresh;#P newex 293 201 59 196617 pack 0. 0;#P newex 293 105 59 196617 unpack 0. 0;#P newex 293 126 134 196617 expr pow(2.\\\,($f1/1200.));#P newex 293 84 49 196617 listiter 2;#P newex 293 243 30 196617 line~;#B color 5;#P comment 426 175 41 196617 loopend;#P comment 351 175 49 196617 loopstart;#P flonum 427 189 52 9 0. 0 1 3 0 0 0 221 221 221 222 222 222 0 0 0;#P comment 467 175 21 196617 ms;#P flonum 360 189 52 9 0. 0 1 3 0 0 0 221 221 221 222 222 222 0 0 0;#P comment 400 175 21 196617 ms;#P message 532 220 85 196617 vln.cl.tr.01.aif;#P newex 561 189 60 196617 prepend set;#P newex 25 43 681 196617 route play startpos stop revrs trsp loopstart loopend loop buffer amp;#P button 25 168 15 0;#P newex 25 189 77 196617 f;#P flonum 92 168 52 9 0. 0 1 3 0 0 0 221 221 221 222 222 222 0 0 0;#P newex 25 21 45 196617 r $1;#B color 6;#P message 159 189 27 196617 stop;#P outlet 317 407 15 0;#P outlet 395 407 15 0;#P newex 293 281 144 196617 groove~ chiko 2;#B color 5;#P comment 124 185 21 196617 ms;#P comment 41 169 27 196617 play;#P comment 99 154 45 196617 startpos;#P comment 496 222 35 196617 buffer;#P comment 243 66 44 196617 reverse;#P connect 79 0 84 0;#P connect 84 0 87 0;#P connect 86 0 81 0;#P connect 87 0 81 0;#P connect 82 0 83 0;#P connect 87 1 82 0;#P connect 85 0 82 0;#P connect 9 0 13 0;#P connect 13 0 12 0;#P connect 12 0 11 0;#P connect 39 0 85 0;#P connect 81 0 82 1;#P connect 13 1 10 0;#P connect 10 0 11 1;#P connect 75 0 77 0;#P connect 77 0 76 0;#P connect 76 0 78 0;#P connect 13 2 31 0;#P connect 62 0 31 0;#P connect 31 0 8 0;#P connect 10 0 76 1;#P connect 55 0 75 0;#P connect 75 1 61 0;#P connect 61 0 78 1;#P connect 60 0 59 0;#P connect 78 0 59 0;#P connect 55 1 60 0;#P connect 13 3 54 0;#P connect 54 0 55 0;#P connect 75 2 56 0;#P connect 40 6 58 0;#P connect 82 0 58 0;#P connect 58 0 60 1;#P connect 55 1 57 0;#P connect 57 0 62 0;#P connect 56 0 62 0;#P connect 13 4 23 0;#P connect 23 0 25 0;#P connect 25 0 24 0;#P connect 62 1 53 0;#P connect 24 0 53 0;#P connect 53 0 26 0;#P connect 26 0 27 0;#P connect 27 0 22 0;#P connect 88 0 5 0;#P connect 14 0 5 0;#P connect 8 0 5 0;#P connect 11 0 5 0;#P connect 22 0 5 0;#P connect 29 0 5 0;#P connect 5 0 67 0;#P connect 62 2 63 0;#P connect 63 0 53 1;#P connect 5 1 67 1;#P connect 67 0 64 0;#P connect 64 0 7 0;#P fasten 66 1 68 0 719 321 341 321;#P connect 68 0 67 2;#P connect 67 1 64 1;#P connect 25 1 26 1;#P connect 13 5 17 0;#P connect 17 0 5 1;#P fasten 66 0 65 0 700 327 379 327;#P connect 65 0 64 3;#P connect 64 1 6 0;#P connect 13 6 19 0;#P connect 19 0 5 2;#P connect 5 2 69 0;#P connect 69 0 72 0;#P connect 72 0 71 0;#P connect 71 0 70 0;#P connect 79 0 88 0;#P connect 13 7 30 0;#P connect 30 0 29 0;#P connect 14 0 40 0;#P connect 39 0 40 0;#P connect 40 2 47 0;#P connect 47 0 44 0;#P connect 44 0 45 0;#P connect 45 0 46 0;#P fasten 66 2 73 0 738 383 513 383;#P connect 47 1 42 0;#P connect 46 0 42 0;#P connect 42 0 48 0;#P connect 13 8 79 0;#P connect 14 0 15 0;#P connect 52 0 50 0;#P connect 51 0 50 0;#P connect 40 3 41 0;#P connect 41 0 51 0;#P connect 39 1 14 0;#P connect 40 6 43 0;#P connect 41 1 43 0;#P connect 82 0 43 0;#P connect 79 1 39 0;#P connect 41 1 52 0;#P connect 40 6 74 0;#P connect 82 0 74 0;#P connect 43 0 49 0;#P connect 13 9 32 0;#P connect 32 1 33 0;#P connect 32 0 33 0;#P connect 33 0 35 0;#P connect 35 0 36 0;#P connect 36 0 37 0;#P connect 38 0 34 0;#P connect 37 0 34 0;#P connect 36 0 38 0;#P connect 33 1 36 1;#P connect 13 10 66 0;#P pop;